<?xml version="1.0" standalone="no"?>
<!DOCTYPE svg PUBLIC "-//W3C//DTD SVG 1.1//EN"
	"http://www.w3.org/Graphics/SVG/1.1/DTD/svg11.dtd">
<svg xmlns="http://www.w3.org/2000/svg" version="1.1"
	xmlns:xlink="http://www.w3.org/1999/xlink"
	xml:space='preserve' color="black"
	width="527.20px" height="82.00px">
<style type="text/css">
.fill {fill: currentColor}
.stroke {stroke: currentColor; fill: none;}
</style>
<title>C:\Users\David\Dropbox\Universidad\TFG\TFG_MusicaMinimalista\TFG_MusicaM (1) tune 1</title>
<!-- Creator: abcm2ps-8.11.2 -->
<!-- CreationDate: Sep 12, 2016 18:14 -->
<!-- CommandLine: -c -g -w 440 -m 0 C:\Users\David\Dropbox\Universidad\TFG\TFG_MusicaMinimalista\TFG_MusicaMinimalista\MusicaMinimalista\bin\Debug\temp\temp.abc -O C:\Users\David\Dropbox\Universidad\TFG\TFG_MusicaMinimalista\TFG_MusicaMinimalista\MusicaMinimalista\bin\Debug\temp\temp.svg -->
<g stroke-width="0.70">
<path class="stroke" stroke-width="3"
	d="M515.70 59.00v-24.00"/>
<path class="stroke" stroke-width="1"
	d="M511.20 59.00v-24.00"/>
<path class="stroke"
	d="M10.00 59.00h507.20m-507.20 -6h507.20m-507.20 -6h507.20m-507.20 -6h507.20m-507.20 -6h507.20"/>
<defs>
<path id="utclef" class="fill" d="m-50 -90
	c-72 -41 -72 -158 52 -188
	150 -10 220 188 90 256
	-114 52 -275 0 -293 -136
	-15 -181 93 -229 220 -334
	88 -87 79 -133 62 -210
	-51 33 -94 105 -89 186
	17 267 36 374 49 574
	6 96 -19 134 -77 135
	-80 1 -126 -93 -61 -133
	85 -41 133 101 31 105
	23 17 92 37 90 -92
	-10 -223 -39 -342 -50 -617
	0 -90 0 -162 96 -232
	56 72 63 230 22 289
	-74 106 -257 168 -255 316
	9 153 148 185 252 133
	86 -65 29 -192 -80 -176
	-71 12 -105 67 -59 124"/>
<use id="tclef" transform="scale(0.045)"
	xlink:href="#utclef"/>
</defs>
<use x="22.00" y="59.00" xlink:href="#tclef"/>
<defs>
<path id="uflat" class="fill" d="
	m100 -746
	h32
	v734
	l-32 4
	m32 -332
	c46 -72 152 -90 208 -20
	100 110 -120 326 -208 348
	m0 -28
	c54 0 200 -206 130 -290
	-50 -60 -130 -4 -130 34"/>
<use id="ft0" transform="translate(-3.5,3.5) scale(0.018)"
	xlink:href="#uflat"/>
</defs>
<use x="37.00" y="47.00" xlink:href="#ft0"/>
<use x="42.50" y="38.00" xlink:href="#ft0"/>
<defs>
<path id="r8e" class="fill" d="m 0 0
	c-1.5 1.5 -2.4 2 -3.6 2
	2.4 -2.8 -2.8 -4 -2.8 -1.2
	c0 2.7 4.3 2.4 5.9 0.6"/>
<g id="r8">
	<path d="m3.3 -4l-3.4 9.6" class="stroke"/>
	<use x="3.4" y="-4" xlink:href="#r8e"/>
</g>
</defs>
<use x="60.50" y="47.00" xlink:href="#r8"/>
<circle class="fill" cx="68.50" cy="44.00" r="1.2"/>
<circle class="fill" cx="72.00" cy="44.00" r="1.2"/>
<circle class="fill" cx="75.50" cy="44.00" r="1.2"/>
<defs>
<path id="r4" class="fill" d="m-1 -8.5
	l3.6 5.1 -2.1 5.2 2.2 4.3
	c-2.6 -2.3 -5.1 0 -2.4 2.6
	-4.8 -3 -1.5 -6.9 1.4 -4.1
	l-3.1 -4.5 1.9 -5.1 -1.5 -3.5"/>
</defs>
<use x="84.00" y="47.00" xlink:href="#r4"/>
<defs>
<ellipse id="hd" rx="4.1" ry="2.9"
	transform="rotate(-20)" class="fill"/>
</defs>
<use x="114.90" y="41.00" xlink:href="#hd"/>
<path d="M111.40 41.00v21.00" class="stroke"/>
<use x="145.80" y="38.00" xlink:href="#hd"/>
<path d="M142.30 38.00v21.00" class="stroke"/>
<use x="173.70" y="53.00" xlink:href="#hd"/>
<path d="M177.20 53.00v-21.00" class="stroke"/>
<defs>
<path id="Hd" class="fill" d="m3 -1.6
	c-1 -1.8 -7 1.4 -6 3.2
	1 1.8 7 -1.4 6 -3.2
	m0.5 -0.3
	c2 3.8 -5 7.6 -7 3.8
	-2 -3.8 5 -7.6 7 -3.8"/>
</defs>
<use x="205.10" y="53.00" xlink:href="#Hd"/>
<use x="195.10" y="53.00" xlink:href="#ft0"/>
<path d="M208.60 53.00v-21.00" class="stroke"/>
<use x="249.20" y="53.00" xlink:href="#Hd"/>
<defs>
<path id="unat" class="fill" d="
	m96 -750
	h-32
	v716
	l32 -8
	182 -54
	v282
	h32
	v-706
	l-34 10
	-180 50
	v-290
	m0 592
	v-190
	l182 -52
	v188"/>
<use id="nt0" transform="translate(-3,5) scale(0.018)"
	xlink:href="#unat"/>
</defs>
<use x="239.20" y="53.00" xlink:href="#nt0"/>
<path d="M252.70 53.00v-21.00" class="stroke"/>
<use x="292.80" y="47.00" xlink:href="#r4"/>
<use x="320.70" y="50.00" xlink:href="#hd"/>
<path d="M324.20 50.00v-21.00" class="stroke"/>
<path class="fill"
	d="M324.20 29.00c0.6 5.6 9.6 9 5.6 18.4
	1.6 -6 -1.3 -11.6 -5.6 -12.8
"/>
<use x="342.90" y="47.00" xlink:href="#hd"/>
<path d="M346.40 47.00v-21.00" class="stroke"/>
<path class="fill"
	d="M346.40 26.00c0.6 5.6 9.6 9 5.6 18.4
	1.6 -6 -1.3 -11.6 -5.6 -12.8
"/>
<use x="365.30" y="44.00" xlink:href="#hd"/>
<path d="M361.80 44.00v21.00" class="stroke"/>
<use x="396.20" y="47.00" xlink:href="#hd"/>
<path d="M392.70 47.00v21.00" class="stroke"/>
<path class="fill"
	d="M392.70 68.00c0.6 -5.6 9.6 -9 5.6 -18.4
	1.6 6 -1.3 11.6 -5.6 12.8
"/>
<use x="416.00" y="50.00" xlink:href="#hd"/>
<path d="M419.50 50.00v-21.00" class="stroke"/>
<path class="fill"
	d="M419.50 29.00c0.6 5.6 9.6 9 5.6 18.4
	1.6 -6 -1.3 -11.6 -5.6 -12.8
"/>
<use x="438.30" y="47.00" xlink:href="#Hd"/>
<path d="M441.80 47.00v-21.00" class="stroke"/>
<use x="481.90" y="53.00" xlink:href="#Hd"/>
<path d="M485.40 53.00v-21.00" class="stroke"/>
</g>
</svg>
