<?xml version="1.0" standalone="no"?>
<!DOCTYPE svg PUBLIC "-//W3C//DTD SVG 1.1//EN"
	"http://www.w3.org/Graphics/SVG/1.1/DTD/svg11.dtd">
<svg xmlns="http://www.w3.org/2000/svg" version="1.1"
	xmlns:xlink="http://www.w3.org/1999/xlink"
	xml:space='preserve' color="black"
	width="521.20px" height="82.00px">
<style type="text/css">
.fill {fill: currentColor}
.stroke {stroke: currentColor; fill: none;}
</style>
<title>C:\Users\David\Dropbox\Universidad\TFG\TFG_MusicaMinimalista\TFG_MusicaM (1) tune 2</title>
<!-- Creator: abcm2ps-8.11.2 -->
<!-- CreationDate: Sep 9, 2016 21:05 -->
<!-- CommandLine: -c -g -w 434 -m 0 C:\Users\David\Dropbox\Universidad\TFG\TFG_MusicaMinimalista\TFG_MusicaMinimalista\MusicaMinimalista\bin\Release\temp\temp.abc -O C:\Users\David\Dropbox\Universidad\TFG\TFG_MusicaMinimalista\TFG_MusicaMinimalista\MusicaMinimalista\bin\Release\temp\temp.svg -->
<g stroke-width="0.70">
<path class="stroke" stroke-width="3"
	d="M509.70 59.00v-24.00"/>
<path class="stroke" stroke-width="1"
	d="M505.20 59.00v-24.00"/>
<path class="stroke"
	d="M10.00 59.00h501.20m-501.20 -6h501.20m-501.20 -6h501.20m-501.20 -6h501.20m-501.20 -6h501.20"/>
<defs>
<path id="utclef" class="fill" d="m-50 -90
	c-72 -41 -72 -158 52 -188
	150 -10 220 188 90 256
	-114 52 -275 0 -293 -136
	-15 -181 93 -229 220 -334
	88 -87 79 -133 62 -210
	-51 33 -94 105 -89 186
	17 267 36 374 49 574
	6 96 -19 134 -77 135
	-80 1 -126 -93 -61 -133
	85 -41 133 101 31 105
	23 17 92 37 90 -92
	-10 -223 -39 -342 -50 -617
	0 -90 0 -162 96 -232
	56 72 63 230 22 289
	-74 106 -257 168 -255 316
	9 153 148 185 252 133
	86 -65 29 -192 -80 -176
	-71 12 -105 67 -59 124"/>
<use id="tclef" transform="scale(0.045)"
	xlink:href="#utclef"/>
</defs>
<use x="22.00" y="59.00" xlink:href="#tclef"/>
<defs>
<path id="uflat" class="fill" d="
	m100 -746
	h32
	v734
	l-32 4
	m32 -332
	c46 -72 152 -90 208 -20
	100 110 -120 326 -208 348
	m0 -28
	c54 0 200 -206 130 -290
	-50 -60 -130 -4 -130 34"/>
<use id="ft0" transform="translate(-3.5,3.5) scale(0.018)"
	xlink:href="#uflat"/>
</defs>
<use x="37.00" y="47.00" xlink:href="#ft0"/>
<use x="42.50" y="38.00" xlink:href="#ft0"/>
<use x="48.00" y="50.00" xlink:href="#ft0"/>
<use x="53.50" y="41.00" xlink:href="#ft0"/>
<defs>
<ellipse id="hd" rx="4.1" ry="2.9"
	transform="rotate(-20)" class="fill"/>
</defs>
<use x="71.50" y="56.00" xlink:href="#hd"/>
<path d="M75.00 56.00v-21.00" class="stroke"/>
<path class="fill"
	d="M75.00 35.00c0.6 5.6 9.6 9 5.6 18.4
	1.6 -6 -1.3 -11.6 -5.6 -12.8
"/>
<use x="108.80" y="50.00" xlink:href="#hd"/>
<path d="M112.30 50.00v-21.00" class="stroke"/>
<path class="fill"
	d="M112.30 29.00c0.6 5.6 9.6 9 5.6 18.4
	1.6 -6 -1.3 -11.6 -5.6 -12.8
"/>
<use x="146.00" y="56.00" xlink:href="#hd"/>
<path d="M149.50 56.00v-21.00" class="stroke"/>
<path class="fill"
	d="M149.50 35.00c0.6 5.6 9.6 9 5.6 18.4
	1.6 -6 -1.3 -11.6 -5.6 -12.8
"/>
<use x="183.30" y="50.00" xlink:href="#hd"/>
<path d="M186.80 50.00v-21.00" class="stroke"/>
<path class="fill"
	d="M186.80 29.00c0.6 5.6 9.6 9 5.6 18.4
	1.6 -6 -1.3 -11.6 -5.6 -12.8
"/>
<use x="220.60" y="56.00" xlink:href="#hd"/>
<path d="M224.10 56.00v-21.00" class="stroke"/>
<path class="fill"
	d="M224.10 35.00c0.6 5.6 9.6 9 5.6 18.4
	1.6 -6 -1.3 -11.6 -5.6 -12.8
"/>
<use x="257.80" y="50.00" xlink:href="#hd"/>
<path d="M261.30 50.00v-21.00" class="stroke"/>
<path class="fill"
	d="M261.30 29.00c0.6 5.6 9.6 9 5.6 18.4
	1.6 -6 -1.3 -11.6 -5.6 -12.8
"/>
<use x="295.10" y="56.00" xlink:href="#hd"/>
<path d="M298.60 56.00v-21.00" class="stroke"/>
<path class="fill"
	d="M298.60 35.00c0.6 5.6 9.6 9 5.6 18.4
	1.6 -6 -1.3 -11.6 -5.6 -12.8
"/>
<use x="332.30" y="50.00" xlink:href="#hd"/>
<path d="M335.80 50.00v-21.00" class="stroke"/>
<path class="fill"
	d="M335.80 29.00c0.6 5.6 9.6 9 5.6 18.4
	1.6 -6 -1.3 -11.6 -5.6 -12.8
"/>
<use x="369.60" y="56.00" xlink:href="#hd"/>
<path d="M373.10 56.00v-21.00" class="stroke"/>
<path class="fill"
	d="M373.10 35.00c0.6 5.6 9.6 9 5.6 18.4
	1.6 -6 -1.3 -11.6 -5.6 -12.8
"/>
<use x="406.90" y="50.00" xlink:href="#hd"/>
<path d="M410.40 50.00v-21.00" class="stroke"/>
<path class="fill"
	d="M410.40 29.00c0.6 5.6 9.6 9 5.6 18.4
	1.6 -6 -1.3 -11.6 -5.6 -12.8
"/>
<use x="444.10" y="56.00" xlink:href="#hd"/>
<path d="M447.60 56.00v-21.00" class="stroke"/>
<path class="fill"
	d="M447.60 35.00c0.6 5.6 9.6 9 5.6 18.4
	1.6 -6 -1.3 -11.6 -5.6 -12.8
"/>
<use x="481.40" y="50.00" xlink:href="#hd"/>
<path d="M484.90 50.00v-21.00" class="stroke"/>
<path class="fill"
	d="M484.90 29.00c0.6 5.6 9.6 9 5.6 18.4
	1.6 -6 -1.3 -11.6 -5.6 -12.8
"/>
</g>
</svg>
